# AST/ASF file generated using VICON BodyLanguage
# -----------------------------------------------
:version 1.10
:name VICON
:units
  mass 1.0
  length 0.45
  angle deg
:documentation
   .ast/.asf automatically generated from VICON data using
   VICON BodyBuilder and BodyLanguage model FoxedUp or BRILLIANT.MOD
:root
   order TX TY TZ RX RY RZ
   axis XYZ
   position 0 0 0  
   orientation 0 0 0 
:bonedata
  begin
     id 1 
     name lhipjoint
     direction 0.78388 -0.462562 0.414208 
     length 3.01181 
     axis 0 0 0  XYZ
  end
  begin
     id 2 
     name lfemur
     direction 0.34202 -0.939693 0  
     length 6.04673  
     axis 0 0 20  XYZ
    dof rx ry rz
    limits (-160.0 20.0)
           (-70.0 70.0)
           (-60.0 70.0)
  end
  begin
     id 3 
     name ltibia
     direction 0.34202 -0.939693 0   
     length 7.211   
     axis 0 0 20   XYZ
    dof rx
    limits (-10.0 170.0)
  end
  begin
     id 4 
     name lfoot
     direction 0.121887 -0.334882 0.934344   
     length 2.13567   
     axis -90 7.62852e-016 20   XYZ
    dof rx rz
    limits (-45.0 90.0)
           (-70.0 20.0)
  end
  begin
     id 5 
     name ltoes
     direction 1.53555e-011 -4.2179e-011 1   
     length 1.05957   
     axis -90 7.62852e-016 20   XYZ
    dof rx
    limits (-90.0 20.0)
  end
  begin
     id 6 
     name rhipjoint
     direction -0.769387 -0.475875 0.426129   
     length 2.92756  
     axis 0 0 0  XYZ 
  end
  begin
     id 7 
     name rfemur
     direction -0.34202 -0.939693 0   
     length 6.35468   
     axis 0 0 -20   XYZ
    dof rx ry rz
    limits (-160.0 20.0)
           (-70.0 70.0)
           (-70.0 60.0)
  end
  begin
     id 8 
     name rtibia
     direction -0.34202 -0.939693 0   
     length 7.37886   
     axis 0 0 -20   XYZ
    dof rx
    limits (-10.0 170.0)
 end
 begin
     id 9 
     name rfoot
     direction -0.101763 -0.279592 0.954711   
     length 2.21478  
     axis -90 -7.62852e-016 -20   XYZ
    dof rx rz
    limits (-45.0 90.0)
           (-20.0 70.0)
  end
  begin
     id 10 
     name rtoes
     direction -1.53494e-011 -4.21851e-011 1   
     length 1.10506   
     axis -90 -7.62852e-016 -20   XYZ
    dof rx
    limits (-90.0 20.0)
  end
  begin
     id 11 
     name lowerback
     direction 0.00747405 0.999267 0.0375481   
     length 2.13259   
     axis 0 0 0   XYZ
    dof rx ry rz
    limits (-20.0 45.0)
           (-30.0 30.0)
           (-30.0 30.0)
  end
  begin
     id 12 
     name upperback
     direction 0.00661626 0.996177 0.0871029   
     length 2.10528   
     axis 0 0 0   XYZ
    dof rx ry rz
    limits (-20.0 45.0)
           (-30.0 30.0)
           (-30.0 30.0)
  end
  begin
     id 13 
     name thorax
     direction 0.00320659 0.997679 0.0680167   
     length 2.11338   
     axis 0 0 0   XYZ
    dof rx ry rz
    limits (-20.0 45.0)
           (-30.0 30.0)
           (-30.0 30.0)
  end
  begin
     id 14 
     name lowerneck
     direction 0.0374841 0.973033 0.227602   
     length 1.42765   
     axis 0 0 0   XYZ
    dof rx ry rz
    limits (-20.0 45.0)
           (-30.0 30.0)
           (-30.0 30.0)
  end
  begin
     id 15 
     name upperneck
     direction 0.00481585 0.989155 -0.146795   
     length 1.47593   
     axis 0 0 0   XYZ
    dof rx ry rz
    limits (-20.0 45.0)
           (-30.0 30.0)
           (-30.0 30.0)
  end
  begin
     id 16
     name head
     direction -0.00292522 0.997206 -0.0746423  
     length 1.48116  
     axis 0 0 0   XYZ
    dof rx ry rz
    limits (-20.0 45.0)
           (-30.0 30.0)
           (-30.0 30.0)
  end
  begin
     id 17 
     name lclavicle
     direction 0.951444 0.305606 0.0368784  
     length 3.01855  
     axis 0 0 0   XYZ
    dof ry rz
    limits (-20.0 10.0)
           (0.0 20.0)
  end
  begin
     id 18 
     name lhumerus
     direction 1 -4.48977e-011 2.61664e-027   
     length 5.52731   
     axis 180 -30 -90   XYZ
    dof rx ry rz
    limits (-60.0 90.0)
           (-90.0 90.0)
           (-90.0 90.0)
  end
  begin
     id 19
     name lradius
     direction 1 -4.48944e-011 8.22157e-027   
     length 3.11059   
     axis 180 -30 -90   XYZ
    dof rx
    limits (-10.0 170.0)
  end
  begin
     id 20
     name lwrist
     direction 1 -4.48976e-011 1.5779e-026   
     length 1.5553   
     axis -1.15221e-014 90 90   XYZ
    dof ry
    limits (-180.0 0.0)
 end
  begin
     id 21 
     name lhand
     direction 1 -4.49025e-011 3.1558e-026   
     length 0.419626   
     axis -2.01367e-014 90 90   XYZ
    dof rx rz
    limits (-90.0 90.0)
           (-45.0 45.0)
  end
  begin
     id 22 
     name lfingers
     direction 1 -4.4904e-011 6.31161e-026   
     length 0.338313   
     axis -4.02734e-014 90 90   XYZ
    dof rx
    limits (0.0 90.0)
  end
  begin
     id 23
     name lthumb
     direction 0.707107 -6.35004e-011 0.707107   
     length 0.485752   
     axis -90 45 2.85299e-015   XYZ
    dof rx rz
    limits (-45.0 45.0)
           (-45.0 45.0)
  end
  begin
     id 24 
     name rclavicle
     direction -0.968876 0.223791 0.105816   
     length 3.04177  
     axis 0 0 0   XYZ 
    dof ry rz
    limits (-10.0 20.0)
           (-20.0 0.0)
  end
  begin
     id 25 
     name rhumerus
     direction -1 -4.48962e-011 -1.01384e-027  
     length 5.25396   
     axis 180 30 90   XYZ
    dof rx ry rz
    limits (-90.0 60.0)
           (-90.0 90.0)
           (-90.0 90.0)
  end
  begin
     id 26 
     name rradius
     direction -1 -4.48955e-011 8.88542e-027   
     length 3.10567   
     axis 180 30 90   XYZ
    dof rx
    limits (-10.0 170.0)
  end
  begin
     id 27 
     name rwrist
     direction -1 -4.48994e-011 1.5779e-026   
     length 1.55283   
     axis -1.15221e-014 -90 -90   XYZ
    dof ry
    limits (-180.0 0.0)
  end
  begin
     id 28
     name rhand
     direction -1 -4.48891e-011 3.1558e-026   
     length 0.498676   
     axis -2.01367e-014 -90 -90   XYZ
    dof rx rz
    limits (-90.0 90.0)
           (-45.0 45.0)
  end
  begin
     id 29
     name rfingers
     direction -1 -4.48972e-011 6.31161e-026   
     length 0.402045   
     axis -4.02734e-014 -90 -90   XYZ
    dof rx
    limits (0.0 90.0)
  end
  begin
     id 30
     name rthumb
     direction -0.707107 -6.34849e-011 0.707107   
     length 0.577259   
     axis -90 -45 -2.85299e-015   XYZ
    dof rx rz
    limits (-45.0 45.0)
           (-45.0 45.0)
  end
:hierarchy
  begin
    root lhipjoint rhipjoint lowerback
    lhipjoint lfemur
    lfemur ltibia
    ltibia lfoot
    lfoot ltoes
    rhipjoint rfemur
    rfemur rtibia
    rtibia rfoot
    rfoot rtoes
    lowerback upperback
    upperback thorax
    thorax lowerneck lclavicle rclavicle
    lowerneck upperneck
    upperneck head
    lclavicle lhumerus
    lhumerus lradius
    lradius lwrist
    lwrist lhand lthumb
    lhand lfingers
    rclavicle rhumerus
    rhumerus rradius
    rradius rwrist
    rwrist rhand rthumb
    rhand rfingers
  end

#!OML:ASF H:\Pregnant\Project 1\Capture day 1\Session 1\femalepreg.ASF
:FULLY-SPECIFIED
:DEGREES
185
root 3.00798 1.30715 19.5113 -99.9656 -69.308 27.7128
lowerback 15.7178 -3.93215 -2.70229
upperback 11.2337 -6.62753 4.34621
thorax 4.12759 -4.17363 6.86144
lowerneck -21.793 1.7198 3.45355
upperneck 33.0656 2.01124 -3.59936
head 15.3323 0.556212 -1.78641
rclavicle 9.54166e-015 8.26944e-014
rhumerus -68.6537 3.54498 -44.1282
rradius 115.553
rwrist 17.1155
rhand 6.83471 -16.2566
rfingers 7.12502
rthumb 212.118 -223.439
lclavicle 9.54166e-015 8.26944e-014
lhumerus -89.5088 0.190016 62.1669
lradius 57.5083
lwrist 84.5404
lhand 115.486 -53.537
lfingers 7.12502
lthumb 143.562 -79.7447
rfemur -89.395 1.85076 -18.0318
rtibia 132.438
rfoot 17.621 32.4962
rtoes -7.21531
lfemur -63.8706 -3.65174 -9.97799
ltibia 110.319
lfoot 19.1836 -24.3594
ltoes -26.2379
186
root 3.00721 1.30369 19.5115 -99.7576 -69.1896 27.3834
lowerback 15.6402 -3.81865 -2.5753
upperback 11.2975 -6.45422 4.352
thorax 4.19812 -4.07712 6.76856
lowerneck -21.7465 1.61018 3.4106
upperneck 33.0387 1.84712 -3.55372
head 15.2993 0.48858 -1.79049
rclavicle 3.81667e-014 1.01778e-013
rhumerus -69.1023 3.08063 -43.9753
rradius 115.789
rwrist 17.2563
rhand 7.03081 -16.3766
rfingers 7.12502
rthumb 212.305 -223.521
lclavicle 3.81667e-014 1.01778e-013
lhumerus -89.794 0.194385 62.0944
lradius 59.2398
lwrist 82.3857
lhand 114.857 -59.3269
lfingers 7.12502
lthumb 142.967 -85.3829
rfemur -89.2333 1.81432 -18.2236
rtibia 132.448
rfoot 17.5784 32.519
rtoes -7.46727
lfemur -63.7723 -4.01493 -10.1726
ltibia 110.249
lfoot 19.279 -24.2313
ltoes -26.2571
187
root 3.00644 1.30035 19.5118 -99.5481 -69.0779 27.0565
lowerback 15.5709 -3.70669 -2.46863
upperback 11.3506 -6.285 4.3607
thorax 4.25674 -3.98332 6.6924
lowerneck -21.6896 1.50221 3.33626
upperneck 33.0209 1.68772 -3.48014
head 15.2681 0.422781 -1.77648
rclavicle 4.77083e-014 -3.18055e-014
rhumerus -69.5472 2.66161 -43.8396
rradius 116.015
rwrist 17.3456
rhand 7.25203 -16.4883
rfingers 7.12502
rthumb 212.516 -223.59
lclavicle 4.77083e-014 -3.18055e-014
lhumerus -90.0793 0.237873 62.0554
lradius 60.9678
lwrist 79.9924
lhand 114.284 -71.3019
lfingers 7.12502
lthumb 142.425 -262.784
rfemur -89.0706 1.78273 -18.4122
rtibia 132.458
rfoot 17.533 32.5383
rtoes -7.71709
lfemur -63.6852 -4.37449 -10.3596
ltibia 110.186
lfoot 19.3611 -24.0975
ltoes -26.2762
188
root 3.00573 1.29715 19.5125 -99.3385 -68.9726 26.7338
lowerback 15.5157 -3.60643 -2.39633
upperback 11.3914 -6.13553 4.36602
thorax 4.30124 -3.90115 6.63605
lowerneck -21.6192 1.41888 3.26523
upperneck 33.0207 1.55381 -3.37866
head 15.2433 0.372243 -1.74667
rclavicle 1.59028e-014 -9.54166e-014
rhumerus -69.9636 2.31263 -43.7438
rradius 116.228
rwrist 17.3807
rhand 7.51399 -16.5803
rfingers 7.12502
rthumb 212.765 -223.63
lclavicle 1.59028e-014 -9.54166e-014
lhumerus -90.3733 0.34069 62.0292
lradius 62.6777
lwrist 77.3982
lhand 113.943 91.0516
lfingers 7.12502
lthumb 142.103 -243.121
rfemur -88.9082 1.75405 -18.5972
rtibia 132.465
rfoot 17.4868 32.5554
rtoes -7.95711
lfemur -63.6081 -4.72968 -10.5398
ltibia 110.132
lfoot 19.4353 -23.9574
ltoes -26.2836
189
root 3.00513 1.29406 19.5135 -99.1288 -68.8741 26.4161
lowerback 15.4759 -3.52321 -2.36342
upperback 11.42 -6.01368 4.36271
thorax 4.33194 -3.83496 6.59742
lowerneck -21.5337 1.37359 3.23115
upperneck 33.039 1.45743 -3.26346
head 15.2263 0.344416 -1.71063
rclavicle 1.36764e-013 -5.40694e-014
rhumerus -70.3396 2.0414 -43.7031
rradius 116.426
rwrist 17.3677
rhand 7.83409 -16.6423
rfingers 7.12502
rthumb 213.069 -223.628
lclavicle 1.36764e-013 -5.40694e-014
lhumerus -90.6704 0.509705 61.9973
lradius 64.3562
lwrist 74.6526
lhand 114.014 113.592
lfingers 7.12502
lthumb 142.17 -220.562
rfemur -88.747 1.72639 -18.778
rtibia 132.471
rfoot 17.4423 32.5708
rtoes -8.18155
lfemur -63.5409 -5.0795 -10.7133
ltibia 110.083
lfoot 19.5065 -23.8132
ltoes -26.2678
190
root 3.00464 1.29108 19.5149 -98.9191 -68.7833 26.1031
lowerback 15.4488 -3.45553 -2.36339
upperback 11.4387 -5.91651 4.34883
thorax 4.35103 -3.78282 6.56998
lowerneck -21.4332 1.36557 3.25278
upperneck 33.071 1.39738 -3.15432
head 15.2148 0.338316 -1.68015
rclavicle 2.22639e-014 2.22639e-014
rhumerus -70.6797 1.83584 -43.7176
rradius 116.608
rwrist 17.3203
rhand 8.22456 -16.6687
rfingers 7.12502
rthumb 213.441 -223.575
lclavicle 2.22639e-014 2.22639e-014
lhumerus -90.9503 0.734214 61.9515
lradius 65.9939
lwrist 71.8152
lhand 114.444 131.772
lfingers 7.12502
lthumb 142.577 -202.274
rfemur -88.587 1.69933 -18.9526
rtibia 132.476
rfoot 17.4011 32.5844
rtoes -8.38751
lfemur -63.4829 -5.42239 -10.879
ltibia 110.041
lfoot 19.5801 -23.6677
ltoes -26.2156
